# xmcd CD database file
#
# Track frame offsets:
#	150
#	13654
#	28116
#	42561
#	57110
#	71560
#	86172
#	99892
#	113229
#	128726
#
# Disc length: 1908 seconds
#
# Revision: 1
# Processed by: cddbd v1.5.1PL2 Copyright (c) Steve Scherf et al.
# Submitted via: CDex 1.60beta1-cs1
#
DISCID=8107720a
DTITLE=Various Artist - 4Jazz Vocals At Lunch Time
DYEAR=2004
DGENRE=Jazz
TTITLE0=DON'T SIT UNDER THE APPLE TREE - アンドリュー・シスターズ
TTITLE1=I DON'T KNOW WHY - ナット・キング・コール
TTITLE2=BEVAUSE OF RAIN - エラ・フィッツジェラルド
TTITLE3=BLUE MOON - メル・トーメ
TTITLE4=BLUES IN THE NIGHT - ダイナ・ショア
TTITLE5=I GOTTA RIGHT TO SING THE BLUES - リナ・ホーン
TTITLE6=BUTTONS AND BOWS - ボブ・ホープ
TTITLE7=GEORGIA ON MY MIND - アニタ・オデイ
TTITLE8=COME RAIN OR COME SHINE - サラ・ヴォーン
TTITLE9=AS TIME GOES BY - ビリー・ホリデイ
EXTD=YEAR: 2004
EXTT0=
EXTT1=
EXTT2=
EXTT3=
EXTT4=
EXTT5=
EXTT6=
EXTT7=
EXTT8=
EXTT9=
PLAYORDER=
